<svg xmlns="http://www.w3.org/2000/svg" xmlns:xlink="http://www.w3.org/1999/xlink" width="180" zoomAndPan="magnify" viewBox="0 0 135 135.000003" height="180" preserveAspectRatio="xMidYMid meet" version="1.0"><defs><clipPath id="f763686b74"><path d="M 3.785156 1 L 131.09375 1 L 131.09375 134 L 3.785156 134 Z M 3.785156 1 " clip-rule="nonzero"/></clipPath></defs><path fill="#ff6c00" d="M 89.453125 112.695312 L 45.539062 112.695312 L 38.480469 133.234375 L 5.707031 133.234375 L 50.714844 14.992188 L 84.28125 14.992188 L 129.285156 133.234375 L 96.511719 133.234375 Z M 81.296875 89.324219 L 67.496094 49.964844 L 53.695312 89.332031 Z M 81.296875 89.324219 " fill-opacity="1" fill-rule="nonzero"/><path fill="#dddac6" d="M 94.214844 18.476562 C 94.214844 19.320312 94.144531 20.15625 94.003906 20.988281 C 93.859375 21.820312 93.648438 22.632812 93.367188 23.429688 C 93.085938 24.226562 92.742188 24.992188 92.328125 25.726562 C 91.917969 26.464844 91.445312 27.160156 90.917969 27.816406 C 90.386719 28.472656 89.804688 29.078125 89.171875 29.636719 C 88.535156 30.191406 87.859375 30.691406 87.140625 31.132812 C 86.421875 31.574219 85.671875 31.949219 84.886719 32.265625 C 84.105469 32.578125 83.300781 32.820312 82.476562 32.996094 C 81.652344 33.175781 80.816406 33.277344 79.972656 33.3125 C 79.132812 33.347656 78.292969 33.308594 77.457031 33.199219 C 76.621094 33.089844 75.796875 32.910156 74.992188 32.660156 C 74.1875 32.414062 73.40625 32.097656 72.65625 31.714844 C 71.902344 31.332031 71.191406 30.890625 70.511719 30.386719 C 69.835938 29.882812 69.207031 29.324219 68.625 28.710938 C 68.046875 28.101562 67.519531 27.445312 67.050781 26.742188 C 66.582031 26.042969 66.175781 25.308594 65.832031 24.539062 C 65.578125 25.03125 65.296875 25.511719 64.992188 25.972656 C 64.683594 26.4375 64.355469 26.878906 63.996094 27.304688 C 63.640625 27.730469 63.261719 28.136719 62.859375 28.519531 C 62.457031 28.902344 62.035156 29.261719 61.59375 29.597656 C 61.152344 29.933594 60.691406 30.242188 60.214844 30.523438 C 59.738281 30.808594 59.246094 31.066406 58.738281 31.292969 C 58.234375 31.523438 57.714844 31.722656 57.1875 31.890625 C 56.660156 32.0625 56.125 32.203125 55.578125 32.3125 C 55.035156 32.421875 54.488281 32.5 53.933594 32.550781 C 53.378906 32.597656 52.828125 32.617188 52.269531 32.601562 C 51.714844 32.585938 51.164062 32.542969 50.613281 32.464844 C 50.0625 32.390625 49.519531 32.285156 48.980469 32.148438 C 48.445312 32.007812 47.914062 31.84375 47.394531 31.644531 C 46.878906 31.449219 46.371094 31.222656 45.875 30.96875 C 45.382812 30.714844 44.90625 30.4375 44.441406 30.128906 C 43.980469 29.820312 43.535156 29.488281 43.113281 29.132812 C 42.6875 28.773438 42.285156 28.394531 41.902344 27.992188 C 41.519531 27.589844 41.160156 27.167969 40.824219 26.722656 C 40.492188 26.28125 40.183594 25.820312 39.898438 25.34375 C 39.617188 24.863281 39.363281 24.371094 39.132812 23.867188 C 38.90625 23.359375 38.707031 22.84375 38.539062 22.3125 C 38.371094 21.785156 38.230469 21.25 38.121094 20.703125 C 38.011719 20.160156 37.933594 19.609375 37.886719 19.058594 C 37.839844 18.503906 37.824219 17.949219 37.839844 17.394531 C 37.855469 16.839844 37.898438 16.289062 37.976562 15.738281 C 38.054688 15.1875 38.160156 14.644531 38.300781 14.105469 C 38.4375 13.570312 38.605469 13.042969 38.804688 12.523438 C 39 12.003906 39.226562 11.496094 39.484375 11.003906 C 39.738281 10.511719 40.019531 10.035156 40.328125 9.570312 C 40.636719 9.109375 40.96875 8.667969 41.328125 8.242188 C 41.683594 7.820312 42.066406 7.414062 42.46875 7.035156 C 42.871094 6.652344 43.296875 6.296875 43.738281 5.960938 C 44.183594 5.628906 44.644531 5.320312 45.121094 5.039062 C 45.601562 4.757812 46.09375 4.5 46.601562 4.273438 C 47.105469 4.046875 47.625 3.851562 48.152344 3.683594 C 48.683594 3.515625 49.21875 3.375 49.765625 3.269531 C 50.308594 3.160156 50.859375 3.082031 51.410156 3.039062 C 51.964844 2.992188 52.519531 2.976562 53.074219 2.992188 C 53.628906 3.007812 54.179688 3.054688 54.730469 3.132812 C 55.28125 3.210938 55.824219 3.320312 56.359375 3.460938 C 56.898438 3.597656 57.425781 3.769531 57.945312 3.96875 C 58.460938 4.164062 58.96875 4.394531 59.460938 4.648438 C 59.953125 4.902344 60.429688 5.1875 60.890625 5.496094 C 61.351562 5.804688 61.796875 6.140625 62.21875 6.496094 C 62.640625 6.855469 63.042969 7.238281 63.425781 7.640625 C 63.804688 8.046875 64.164062 8.472656 64.496094 8.914062 C 64.828125 9.359375 65.136719 9.820312 65.417969 10.300781 C 65.699219 10.777344 65.949219 11.273438 66.175781 11.777344 C 66.546875 11.039062 66.980469 10.335938 67.46875 9.667969 C 67.960938 9 68.503906 8.378906 69.097656 7.800781 C 69.691406 7.226562 70.332031 6.703125 71.015625 6.234375 C 71.695312 5.765625 72.414062 5.355469 73.164062 5.007812 C 73.914062 4.65625 74.691406 4.375 75.488281 4.15625 C 76.289062 3.9375 77.097656 3.785156 77.921875 3.703125 C 78.746094 3.621094 79.570312 3.605469 80.398438 3.660156 C 81.226562 3.714844 82.039062 3.839844 82.847656 4.03125 C 83.652344 4.226562 84.433594 4.484375 85.199219 4.808594 C 85.960938 5.132812 86.691406 5.515625 87.386719 5.964844 C 88.085938 6.410156 88.742188 6.910156 89.355469 7.46875 C 89.96875 8.023438 90.53125 8.628906 91.042969 9.277344 C 91.554688 9.929688 92.007812 10.617188 92.40625 11.34375 C 92.800781 12.070312 93.136719 12.828125 93.40625 13.609375 C 93.675781 14.390625 93.878906 15.191406 94.015625 16.007812 C 94.152344 16.828125 94.21875 17.648438 94.214844 18.476562 Z M 94.214844 18.476562 " fill-opacity="1" fill-rule="nonzero"/><g clip-path="url(#f763686b74)"><path fill="#151515" d="M 51.824219 90.046875 L 83.164062 90.046875 L 67.496094 45.355469 Z M 55.5625 87.390625 L 64.761719 61.152344 C 64.863281 60.867188 65 60.605469 65.183594 60.367188 C 65.363281 60.125 65.574219 59.921875 65.820312 59.746094 C 66.066406 59.574219 66.332031 59.441406 66.617188 59.351562 C 66.902344 59.257812 67.195312 59.214844 67.496094 59.214844 C 67.796875 59.214844 68.089844 59.257812 68.375 59.351562 C 68.660156 59.441406 68.925781 59.574219 69.171875 59.746094 C 69.417969 59.921875 69.628906 60.125 69.808594 60.367188 C 69.992188 60.605469 70.128906 60.867188 70.230469 61.152344 L 76.960938 80.351562 C 77.101562 80.75 77.191406 81.160156 77.234375 81.582031 C 77.277344 82 77.265625 82.421875 77.207031 82.839844 C 77.148438 83.257812 77.042969 83.664062 76.886719 84.054688 C 76.730469 84.449219 76.527344 84.816406 76.285156 85.160156 C 76.039062 85.503906 75.757812 85.816406 75.441406 86.09375 C 75.121094 86.371094 74.773438 86.605469 74.398438 86.800781 C 74.023438 86.992188 73.628906 87.140625 73.21875 87.242188 C 72.808594 87.339844 72.394531 87.390625 71.96875 87.390625 Z M 92.378906 27.394531 C 92.765625 26.871094 93.117188 26.328125 93.4375 25.765625 C 93.757812 25.199219 94.042969 24.617188 94.296875 24.019531 C 94.546875 23.417969 94.757812 22.808594 94.933594 22.183594 C 95.109375 21.558594 95.25 20.921875 95.347656 20.28125 C 95.449219 19.640625 95.507812 18.996094 95.53125 18.34375 C 95.550781 17.695312 95.535156 17.046875 95.476562 16.402344 C 95.421875 15.753906 95.328125 15.113281 95.191406 14.476562 C 95.058594 13.84375 94.886719 13.21875 94.675781 12.601562 C 94.464844 11.988281 94.21875 11.390625 93.9375 10.804688 C 93.65625 10.21875 93.339844 9.652344 92.988281 9.105469 C 92.640625 8.558594 92.257812 8.035156 91.84375 7.535156 C 91.429688 7.035156 90.988281 6.5625 90.515625 6.113281 C 90.042969 5.667969 89.546875 5.25 89.027344 4.863281 C 88.503906 4.476562 87.960938 4.121094 87.398438 3.800781 C 86.832031 3.480469 86.25 3.195312 85.652344 2.941406 C 85.054688 2.691406 84.441406 2.476562 83.816406 2.300781 C 77.992188 0.722656 72.507812 2.359375 68.652344 5.796875 C 67.347656 6.960938 65.101562 6.824219 63.84375 5.605469 C 60 1.886719 54.332031 0.0429688 48.300781 1.621094 C 46.96875 1.976562 45.707031 2.5 44.507812 3.183594 C 43.3125 3.871094 42.222656 4.699219 41.242188 5.664062 C 40.261719 6.632812 39.417969 7.710938 38.714844 8.898438 C 38.015625 10.082031 37.472656 11.339844 37.097656 12.667969 C 35.480469 18.515625 37.097656 24.003906 40.523438 27.878906 C 42.03125 29.578125 42.628906 31.890625 41.820312 34.015625 L 3.785156 133.957031 L 39.425781 133.957031 L 44.3125 119.742188 C 44.628906 118.816406 45.078125 117.964844 45.660156 117.183594 C 46.246094 116.398438 46.933594 115.726562 47.726562 115.160156 C 48.523438 114.589844 49.382812 114.160156 50.3125 113.859375 C 51.242188 113.5625 52.195312 113.414062 53.171875 113.414062 L 88.523438 113.414062 L 95.566406 133.957031 L 131.207031 133.957031 L 91.867188 30.5625 C 91.675781 30.027344 91.625 29.476562 91.714844 28.914062 C 91.808594 28.351562 92.027344 27.84375 92.378906 27.394531 Z M 79.355469 4.347656 C 80.421875 4.351562 81.472656 4.476562 82.511719 4.730469 C 83.546875 4.980469 84.539062 5.351562 85.488281 5.839844 C 86.4375 6.328125 87.316406 6.917969 88.125 7.613281 C 88.933594 8.3125 89.648438 9.09375 90.273438 9.957031 C 89.757812 9.554688 89.210938 9.203125 88.628906 8.910156 C 88.046875 8.613281 87.4375 8.378906 86.808594 8.203125 C 86.179688 8.027344 85.539062 7.917969 84.886719 7.867188 C 84.234375 7.820312 83.585938 7.835938 82.9375 7.917969 C 82.289062 7.996094 81.652344 8.140625 81.035156 8.347656 C 80.414062 8.554688 79.820312 8.820312 79.25 9.144531 C 78.683594 9.464844 78.152344 9.84375 77.660156 10.273438 C 77.167969 10.699219 76.722656 11.175781 76.320312 11.691406 C 76.195312 11.855469 76.09375 12.027344 76.011719 12.214844 C 75.925781 12.402344 75.867188 12.597656 75.828125 12.800781 C 75.792969 13 75.777344 13.203125 75.789062 13.410156 C 75.800781 13.613281 75.835938 13.8125 75.890625 14.011719 C 75.949219 14.207031 76.03125 14.394531 76.132812 14.570312 C 76.234375 14.75 76.355469 14.910156 76.496094 15.0625 C 76.636719 15.210938 76.792969 15.339844 76.964844 15.453125 C 77.136719 15.5625 77.320312 15.65625 77.511719 15.722656 L 83.125 17.726562 C 83.445312 17.839844 83.605469 18.066406 83.605469 18.40625 C 83.605469 18.746094 83.445312 18.972656 83.125 19.085938 L 77.410156 21.152344 C 77.257812 21.210938 77.109375 21.285156 76.972656 21.378906 C 76.835938 21.472656 76.714844 21.582031 76.605469 21.703125 C 76.492188 21.828125 76.398438 21.960938 76.320312 22.105469 C 76.246094 22.253906 76.183594 22.40625 76.144531 22.566406 C 76.105469 22.726562 76.085938 22.890625 76.082031 23.054688 C 76.082031 23.21875 76.101562 23.382812 76.140625 23.542969 C 76.179688 23.703125 76.238281 23.855469 76.3125 24.003906 C 76.390625 24.152344 76.484375 24.285156 76.59375 24.410156 C 77.003906 24.894531 77.457031 25.335938 77.953125 25.730469 C 78.449219 26.128906 78.980469 26.472656 79.539062 26.769531 C 80.101562 27.066406 80.6875 27.304688 81.296875 27.488281 C 81.90625 27.671875 82.527344 27.792969 83.15625 27.855469 C 83.789062 27.921875 84.421875 27.925781 85.054688 27.867188 C 85.6875 27.808594 86.308594 27.691406 86.917969 27.515625 C 87.527344 27.335938 88.117188 27.105469 88.679688 26.816406 C 89.246094 26.523438 89.777344 26.183594 90.277344 25.792969 C 89.964844 26.230469 89.628906 26.644531 89.265625 27.042969 C 88.90625 27.4375 88.519531 27.8125 88.113281 28.160156 C 87.707031 28.511719 87.28125 28.835938 86.835938 29.132812 C 86.386719 29.433594 85.925781 29.703125 85.445312 29.949219 C 84.96875 30.191406 84.476562 30.40625 83.972656 30.589844 C 83.46875 30.773438 82.957031 30.925781 82.433594 31.050781 C 81.910156 31.171875 81.382812 31.261719 80.847656 31.320312 C 80.316406 31.382812 79.78125 31.410156 79.242188 31.402344 C 78.707031 31.398438 78.171875 31.359375 77.640625 31.292969 C 77.105469 31.222656 76.582031 31.121094 76.058594 30.988281 C 75.539062 30.855469 75.03125 30.691406 74.527344 30.5 C 74.027344 30.304688 73.539062 30.082031 73.066406 29.828125 C 72.59375 29.578125 72.136719 29.296875 71.695312 28.988281 C 71.257812 28.683594 70.835938 28.351562 70.433594 27.992188 C 70.035156 27.632812 69.65625 27.253906 69.304688 26.851562 C 68.949219 26.449219 68.621094 26.023438 68.316406 25.582031 C 68.003906 25.113281 67.8125 24.601562 67.746094 24.042969 C 67.675781 23.484375 67.742188 22.9375 67.9375 22.410156 C 68.5 20.796875 68.796875 19.136719 68.816406 17.429688 C 68.839844 15.71875 68.585938 14.050781 68.0625 12.425781 C 67.777344 11.640625 67.859375 10.894531 68.304688 10.191406 C 68.921875 9.289062 69.636719 8.480469 70.449219 7.753906 C 71.261719 7.027344 72.148438 6.414062 73.113281 5.902344 C 74.074219 5.394531 75.085938 5.007812 76.144531 4.746094 C 77.199219 4.480469 78.273438 4.347656 79.363281 4.347656 Z M 39.484375 14.023438 C 39.644531 13.355469 39.859375 12.703125 40.121094 12.066406 C 40.378906 11.433594 40.6875 10.820312 41.042969 10.230469 C 41.398438 9.640625 41.796875 9.082031 42.238281 8.554688 C 42.679688 8.027344 43.15625 7.535156 43.671875 7.082031 C 44.1875 6.625 44.734375 6.210938 45.3125 5.839844 C 45.890625 5.46875 46.496094 5.144531 47.125 4.867188 C 47.753906 4.585938 48.398438 4.355469 49.0625 4.175781 C 49.726562 3.996094 50.402344 3.867188 51.085938 3.789062 C 51.765625 3.714844 52.453125 3.6875 53.140625 3.71875 C 53.828125 3.746094 54.507812 3.824219 55.183594 3.957031 C 55.859375 4.089844 56.519531 4.269531 57.167969 4.503906 C 57.8125 4.738281 58.4375 5.015625 59.042969 5.347656 C 59.648438 5.675781 60.222656 6.046875 60.769531 6.464844 C 61.316406 6.882812 61.828125 7.335938 62.304688 7.832031 C 62.785156 8.328125 63.222656 8.855469 63.617188 9.417969 C 64.015625 9.980469 64.367188 10.566406 64.671875 11.183594 C 64.652344 11.222656 64.628906 11.253906 64.613281 11.289062 C 64.390625 10.984375 64.152344 10.691406 63.894531 10.414062 C 63.640625 10.136719 63.367188 9.875 63.082031 9.625 C 62.796875 9.378906 62.496094 9.148438 62.183594 8.9375 C 61.875 8.722656 61.550781 8.527344 61.214844 8.351562 C 60.882812 8.175781 60.539062 8.019531 60.1875 7.882812 C 59.832031 7.746094 59.472656 7.628906 59.109375 7.53125 C 58.742188 7.4375 58.375 7.359375 58 7.304688 C 57.625 7.253906 57.25 7.21875 56.871094 7.207031 C 56.492188 7.199219 56.117188 7.207031 55.738281 7.238281 C 55.363281 7.273438 54.988281 7.324219 54.617188 7.398438 C 54.25 7.472656 53.882812 7.570312 53.523438 7.683594 C 53.164062 7.800781 52.8125 7.9375 52.46875 8.09375 C 52.125 8.25 51.789062 8.425781 51.464844 8.617188 C 51.140625 8.8125 50.828125 9.023438 50.527344 9.253906 C 50.230469 9.484375 49.941406 9.730469 49.671875 9.992188 C 49.398438 10.257812 49.140625 10.53125 48.902344 10.824219 C 47.683594 12.296875 48.390625 14.546875 50.1875 15.195312 L 54.722656 16.8125 C 54.925781 16.886719 55.09375 17.011719 55.21875 17.1875 C 55.34375 17.363281 55.40625 17.5625 55.40625 17.777344 C 55.40625 17.996094 55.34375 18.191406 55.21875 18.367188 C 55.09375 18.546875 54.925781 18.671875 54.722656 18.742188 L 49.699219 20.550781 C 48.488281 20.984375 47.957031 22.503906 48.765625 23.507812 C 48.996094 23.800781 49.242188 24.074219 49.503906 24.339844 C 49.765625 24.601562 50.039062 24.847656 50.328125 25.082031 C 50.617188 25.3125 50.917969 25.527344 51.234375 25.726562 C 51.546875 25.925781 51.871094 26.105469 52.203125 26.265625 C 52.539062 26.429688 52.878906 26.570312 53.226562 26.695312 C 53.578125 26.820312 53.933594 26.921875 54.292969 27.007812 C 54.65625 27.089844 55.019531 27.15625 55.386719 27.199219 C 55.757812 27.242188 56.125 27.265625 56.496094 27.265625 C 56.867188 27.269531 57.238281 27.25 57.605469 27.210938 C 57.976562 27.171875 58.339844 27.109375 58.703125 27.03125 C 59.066406 26.949219 59.421875 26.851562 59.773438 26.730469 C 60.125 26.609375 60.464844 26.46875 60.800781 26.3125 C 61.136719 26.152344 61.460938 25.976562 61.777344 25.78125 C 62.09375 25.585938 62.398438 25.375 62.6875 25.144531 C 62.980469 24.917969 63.257812 24.671875 63.523438 24.414062 C 63.789062 24.152344 64.035156 23.878906 64.269531 23.589844 C 64.304688 23.679688 64.320312 23.773438 64.355469 23.855469 C 63.960938 24.5625 63.503906 25.230469 62.988281 25.855469 C 62.472656 26.476562 61.90625 27.050781 61.285156 27.574219 C 60.667969 28.097656 60.007812 28.558594 59.304688 28.964844 C 58.601562 29.367188 57.867188 29.703125 57.105469 29.976562 C 56.34375 30.246094 55.5625 30.449219 54.761719 30.578125 C 53.960938 30.710938 53.15625 30.769531 52.347656 30.753906 C 51.539062 30.742188 50.734375 30.65625 49.941406 30.496094 C 49.148438 30.335938 48.375 30.109375 47.621094 29.8125 C 46.867188 29.515625 46.144531 29.152344 45.457031 28.722656 C 44.769531 28.296875 44.125 27.808594 43.527344 27.265625 C 42.925781 26.722656 42.378906 26.128906 41.882812 25.488281 C 41.390625 24.847656 40.957031 24.164062 40.585938 23.445312 C 40.214844 22.726562 39.910156 21.976562 39.675781 21.203125 C 39.4375 20.429688 39.273438 19.636719 39.179688 18.832031 C 39.085938 18.027344 39.0625 17.222656 39.113281 16.414062 C 39.164062 15.605469 39.289062 14.808594 39.480469 14.023438 Z M 90.394531 110.773438 L 44.59375 110.773438 L 39.300781 126.179688 C 39.042969 126.925781 38.675781 127.617188 38.199219 128.25 C 37.726562 128.886719 37.164062 129.429688 36.519531 129.890625 C 35.875 130.347656 35.175781 130.699219 34.421875 130.941406 C 33.667969 131.179688 32.894531 131.300781 32.101562 131.300781 L 15.480469 131.300781 C 15.042969 131.300781 14.609375 131.246094 14.1875 131.140625 C 13.761719 131.035156 13.355469 130.878906 12.96875 130.675781 C 12.578125 130.472656 12.222656 130.222656 11.894531 129.933594 C 11.566406 129.640625 11.28125 129.316406 11.03125 128.957031 C 10.78125 128.59375 10.582031 128.210938 10.425781 127.800781 C 10.273438 127.390625 10.167969 126.96875 10.117188 126.53125 C 10.0625 126.097656 10.0625 125.664062 10.117188 125.226562 C 10.171875 124.792969 10.273438 124.371094 10.429688 123.960938 L 43.921875 35.972656 C 44.738281 33.84375 46.980469 32.515625 49.210938 33.019531 C 50.34375 33.28125 51.488281 33.410156 52.648438 33.414062 C 54.734375 33.414062 56.742188 33.023438 58.671875 32.238281 C 60.601562 31.457031 62.316406 30.34375 63.8125 28.894531 C 64.070312 28.636719 64.367188 28.441406 64.703125 28.308594 C 65.035156 28.171875 65.386719 28.109375 65.746094 28.117188 C 66.109375 28.125 66.457031 28.203125 66.785156 28.351562 C 67.117188 28.5 67.402344 28.707031 67.648438 28.972656 C 69.167969 30.59375 70.945312 31.84375 72.984375 32.730469 C 75.019531 33.613281 77.148438 34.054688 79.371094 34.054688 C 81.757812 34.050781 84.023438 33.535156 86.175781 32.503906 C 87.789062 31.730469 89.714844 32.378906 90.351562 34.050781 L 124.417969 123.574219 C 124.582031 124.003906 124.691406 124.449219 124.746094 124.90625 C 124.800781 125.367188 124.800781 125.824219 124.746094 126.28125 C 124.691406 126.742188 124.582031 127.1875 124.417969 127.617188 C 124.253906 128.050781 124.042969 128.453125 123.78125 128.835938 C 123.519531 129.214844 123.214844 129.558594 122.867188 129.863281 C 122.523438 130.171875 122.148438 130.429688 121.738281 130.644531 C 121.328125 130.859375 120.902344 131.023438 120.453125 131.132812 C 120.003906 131.246094 119.550781 131.300781 119.089844 131.300781 L 97.457031 131.300781 Z M 58.308594 37.027344 C 58.1875 36.890625 58.097656 36.734375 58.039062 36.5625 C 57.976562 36.390625 57.953125 36.210938 57.960938 36.027344 C 57.96875 35.847656 58.011719 35.671875 58.089844 35.503906 C 58.164062 35.339844 58.269531 35.195312 58.402344 35.066406 C 58.535156 34.941406 58.6875 34.847656 58.855469 34.78125 C 59.027344 34.714844 59.203125 34.679688 59.386719 34.683594 C 59.570312 34.683594 59.746094 34.71875 59.914062 34.789062 C 60.082031 34.859375 60.234375 34.957031 60.363281 35.085938 C 60.59375 35.324219 65.53125 40.292969 72.386719 34.945312 C 72.53125 34.832031 72.695312 34.746094 72.878906 34.699219 C 73.058594 34.648438 73.242188 34.632812 73.425781 34.65625 C 73.613281 34.679688 73.789062 34.734375 73.949219 34.828125 C 74.113281 34.921875 74.253906 35.039062 74.367188 35.1875 C 74.484375 35.335938 74.566406 35.5 74.617188 35.679688 C 74.667969 35.859375 74.679688 36.042969 74.65625 36.230469 C 74.636719 36.414062 74.578125 36.589844 74.484375 36.753906 C 74.394531 36.914062 74.273438 37.054688 74.125 37.171875 C 71.175781 39.480469 68.453125 40.253906 66.132812 40.253906 C 61.421875 40.253906 58.351562 37.074219 58.308594 37.027344 Z M 58.308594 37.027344 " fill-opacity="1" fill-rule="nonzero"/></g></svg>