<?xml version="1.0" encoding="UTF-8"?>
<svg version="1.1" xmlns="http://www.w3.org/2000/svg" width="4096" height="4096">
<path d="M0 0 C0.66 0 1.32 0 2 0 C2.1952124 1.0430127 2.3904248 2.08602539 2.59155273 3.16064453 C17.21876873 80.99768945 39.2092713 156.2759515 75.05575562 227.13293457 C75.93560407 228.87266918 76.81134891 230.61447747 77.68676758 232.35644531 C97.80471217 272.2658145 121.930641 310.18784505 150 345 C150.75796875 345.94101563 151.5159375 346.88203125 152.296875 347.8515625 C154.51531674 350.5813472 156.75186721 353.29461986 159 356 C159.63373535 356.76328613 159.63373535 356.76328613 160.28027344 357.54199219 C166.11055807 364.54770308 172.0893399 371.37672894 178.296875 378.05078125 C180.25222071 380.15756439 182.12468342 382.31970902 183.98828125 384.5078125 C188.93313602 390.17969384 194.29674158 395.44587919 199.62426758 400.75463867 C201.43360933 402.55862085 203.23754319 404.36788665 205.04101562 406.17773438 C210.85950092 411.99957534 216.71602289 417.67646025 223 423 C224.60768373 424.45445517 226.21239715 425.91220895 227.8125 427.375 C232.07610017 431.21806298 236.44552273 434.89322734 240.91015625 438.5 C243.15960665 440.32003572 245.39473792 442.15218882 247.62109375 444 C262.16894624 456.03207224 277.50908745 466.75759127 293.1875 477.25 C293.81054016 477.66806915 294.43358032 478.08613831 295.07550049 478.51687622 C304.21652393 484.64065425 313.52417756 490.40985815 323 496 C323.85827393 496.51336914 324.71654785 497.02673828 325.60083008 497.55566406 C362.91569329 519.83103077 404.13864471 539.0429328 446 551 C446 551.66 446 552.32 446 553 C445.43007324 553.17950195 444.86014648 553.35900391 444.27294922 553.54394531 C418.1013999 561.85878373 392.74396443 572.09680145 368 584 C366.88915039 584.53351074 365.77830078 585.06702148 364.63378906 585.61669922 C319.10514894 607.61903367 276.52869143 635.49720818 238.09765625 668.375 C235.19521627 670.85116957 232.22759416 673.23961164 229.25 675.625 C225.01213475 679.06941878 221.13578461 682.71767622 217.36328125 686.6640625 C215.44324214 688.56188628 213.50108436 690.30578843 211.453125 692.05859375 C206.39372621 696.44815002 201.6777835 701.17197013 196.9543457 705.9152832 C195.4400742 707.43491668 193.9205257 708.94912517 192.40039062 710.46289062 C187.59015955 715.26983281 182.88468563 720.12516105 178.46020508 725.29467773 C176.40907611 727.69011927 174.26473872 729.99625085 172.125 732.3125 C168.08597847 736.74631311 164.22493122 741.28054584 160.4609375 745.94921875 C158.66719764 748.17288674 156.86127617 750.38198478 155.0390625 752.58203125 C146.62758006 762.77122477 138.70799199 773.2703055 131 784 C130.41041504 784.82048828 129.82083008 785.64097656 129.21337891 786.48632812 C90.3740551 840.76165744 59.96283043 901.03214536 38 964 C37.56381348 965.24426758 37.12762695 966.48853516 36.67822266 967.77050781 C21.18338907 1012.16059838 10.14301206 1057.71981713 2 1104 C1.34 1104 0.68 1104 0 1104 C-0.1952124 1102.9569873 -0.3904248 1101.91397461 -0.59155273 1100.83935547 C-11.76839273 1041.36408256 -26.66617482 982.9794167 -50 927 C-50.37614441 926.0942926 -50.37614441 926.0942926 -50.7598877 925.17028809 C-63.54179919 894.43460501 -77.97143413 864.19911227 -95.31738281 835.76220703 C-97.09111958 832.85041688 -98.83974552 829.92447561 -100.5859375 826.99609375 C-106.96690233 816.3418919 -113.54785565 805.89455115 -120.74267578 795.77050781 C-121.95078565 794.06930146 -123.14654737 792.36005468 -124.33984375 790.6484375 C-134.60697075 776.00688304 -145.44583971 761.65117871 -157 748 C-157.44762695 747.46890625 -157.89525391 746.9378125 -158.35644531 746.390625 C-164.88566056 738.65487698 -171.57616527 731.09994735 -178.46264648 723.6809082 C-179.63418837 722.39997031 -180.79286017 721.1072488 -181.94555664 719.80932617 C-187.32547622 713.75684185 -192.90017428 707.94376909 -198.63891602 702.23071289 C-200.06839717 700.80662508 -201.49240511 699.37721956 -202.91601562 697.94726562 C-207.56357097 693.30617869 -212.25430169 688.78822118 -217.24145508 684.51342773 C-219.83049118 682.28526797 -222.31302441 679.95318285 -224.8125 677.625 C-230.35659827 672.50999794 -236.10905902 667.71275278 -242 663 C-243.11905814 662.08923981 -244.23751888 661.17774524 -245.35546875 660.265625 C-260.10622473 648.2761042 -275.4507859 637.24505777 -291.25 626.6875 C-291.87117706 626.27129395 -292.49235413 625.85508789 -293.13235474 625.42626953 C-302.25538685 619.32484693 -311.54894032 613.57804235 -321 608 C-321.85835449 607.48655029 -322.71670898 606.97310059 -323.60107422 606.4440918 C-357.14088752 586.42372622 -392.74505151 570.8327875 -429.49243164 557.7800293 C-430.16648041 557.5402536 -430.84052917 557.30047791 -431.53500366 557.05343628 C-433.35840463 556.40658358 -435.18341929 555.76428481 -437.00854492 555.12231445 C-439.44551607 554.20802763 -441.7090602 553.22607249 -444 552 C-438.57366381 549.76526137 -433.11642956 547.65912116 -427.5859375 545.6953125 C-388.05246429 531.64864074 -349.77879513 513.97060363 -314 492 C-313.15985352 491.48630859 -312.31970703 490.97261719 -311.45410156 490.44335938 C-287.0647451 475.46558351 -263.75033734 458.92067147 -241.82617188 440.52197266 C-239.32752635 438.43954535 -236.78733081 436.40999798 -234.25 434.375 C-229.11587366 430.18355847 -224.26809798 425.7165187 -219.43359375 421.1875 C-216.79299139 418.714403 -214.09723283 416.31073579 -211.390625 413.91015625 C-205.72145983 408.81841099 -200.32503559 403.47637857 -194.94897461 398.0793457 C-193.30760204 396.43258596 -191.66091181 394.79127905 -190.01367188 393.15039062 C-184.46434944 387.6045672 -179.09551083 381.96927563 -174 376 C-172.38032183 374.22429779 -170.75588282 372.45291693 -169.125 370.6875 C-165.08720678 366.25503526 -161.22692566 361.72257823 -157.46484375 357.0546875 C-155.65914825 354.8168842 -153.84020688 352.59518101 -152.00390625 350.3828125 C-144.46861096 341.26982909 -137.41524185 331.89142679 -130.58642578 322.23925781 C-129.03316925 320.04681877 -127.46909405 317.86249734 -125.90234375 315.6796875 C-108.84624074 291.83782308 -94.1346905 266.65976266 -80 241 C-79.5762207 240.23655273 -79.15244141 239.47310547 -78.71582031 238.68652344 C-38.0202263 165.17078284 -14.74991985 82.23969193 0 0 Z " fill="#FD7401" transform="translate(2047,1398)"/>
<path d="M0 0 C1.22444824 0.14453613 2.44889648 0.28907227 3.71044922 0.43798828 C70.03260731 8.49515346 137.17554073 29.12683893 194 65 C194.79841309 65.5038623 195.59682617 66.00772461 196.41943359 66.52685547 C220.90174067 82.06576877 243.62965736 99.38739117 265 119 C265.54350098 119.49306641 266.08700195 119.98613281 266.64697266 120.49414062 C281.17063304 133.68224619 294.48969432 147.89393251 307 163 C307.72799805 163.87857666 307.72799805 163.87857666 308.47070312 164.77490234 C316.77270146 174.85160322 324.50596139 185.31141873 332 196 C332.42990234 196.61246582 332.85980469 197.22493164 333.30273438 197.85595703 C380.62028749 265.80350613 412.86217018 348.42087748 427.35972595 559.95825195 C424.59668546 575.27382451 420.80789572 590.20381399 416 605 C415.58065186 606.30735107 415.58065186 606.30735107 415.15283203 607.64111328 C410.98341936 620.50958076 405.79618528 632.78577675 400 645 C399.67950684 645.68481445 399.35901367 646.36962891 399.02880859 647.07519531 C387.63360769 671.31184155 372.85997699 693.4146394 355.71386719 713.92138672 C354.48796936 715.40818075 353.28246087 716.91188029 352.09082031 718.42626953 C346.17640485 725.87450643 339.70512282 732.60238137 332.96240234 739.29833984 C331.12752731 741.12248747 329.30360668 742.95709873 327.48046875 744.79296875 C320.62421304 751.65692597 313.61259361 757.9760244 306 764 C304.89788496 764.93444128 303.80156868 765.87582936 302.71484375 766.828125 C296.51274188 772.23642762 290.10719991 777.2403197 283.4375 782.0625 C282.6633374 782.62291992 281.8891748 783.18333984 281.09155273 783.76074219 C277.80510816 786.10949312 274.65797912 788.26422516 271 790 C271.31130859 788.64261719 271.31130859 788.64261719 271.62890625 787.2578125 C272.78208353 782.17829517 273.89417778 777.09001199 275 772 C275.26264648 770.7929541 275.52529297 769.5859082 275.79589844 768.34228516 C285.46533411 723.68517971 291.24016952 678.94950897 291.1875 633.1875 C291.18689575 632.20688599 291.1862915 631.22627197 291.18566895 630.21594238 C291.04481941 545.45543943 272.05908599 460.52643773 153 253 C152.2869873 252.13834229 152.2869873 252.13834229 151.55957031 251.25927734 C145.62308858 244.09104835 139.47531964 237.15990526 133.1171875 230.36328125 C130.6418719 227.71529789 128.23230244 225.01388211 125.82421875 222.3046875 C121.16358182 217.11629338 116.30309402 212.15060342 111.36108398 207.23071289 C109.93160283 205.80662508 108.50759489 204.37721956 107.08398438 202.94726562 C101.88342761 197.75394693 96.58346246 192.77652474 91 188 C89.39231627 186.54554483 87.78760285 185.08779105 86.1875 183.625 C80.93819023 178.89423907 75.50376055 174.43002948 70 170 C68.86686303 169.07461592 67.73406551 168.14881607 66.6015625 167.22265625 C44.23163776 149.01316756 20.05195047 132.31540027 -5 118 C-5.59119629 117.65775391 -6.18239258 117.31550781 -6.79150391 116.96289062 C-75.17654831 77.39146572 -150.34164183 52.59731469 -229 45 C-230.01803711 44.8961499 -231.03607422 44.7922998 -232.08496094 44.68530273 C-243.62372988 43.67471891 -255.21205647 43.81393111 -266.78564453 43.81469727 C-270.49132688 43.81250513 -274.19671359 43.79427938 -277.90234375 43.77539062 C-295.65063617 43.72784689 -310.32128318 44.65255834 -326.8125 51.6875 C-328.20708535 52.26993744 -329.60194928 52.85170821 -330.99707031 53.43286133 C-335.34583602 55.25551804 -339.67568887 57.12015372 -344 59 C-344.68439148 59.29729004 -345.36878296 59.59458008 -346.07391357 59.90087891 C-362.9633778 67.2583249 -379.57682623 75.1552384 -396.0625 83.375 C-397.1682135 83.92503189 -397.1682135 83.92503189 -398.29626465 84.48617554 C-408.71347122 89.68118811 -418.90204196 95.20961001 -429 101 C-429 97.20383737 -428.19518149 96.76265821 -425.5625 94.125 C-395.62052652 65.26413388 -355.98498707 50.14397926 -315.4375 43.8125 C-305.89587487 42.08822663 -296.93845426 38.6509705 -287.81600952 35.43283081 C-208.64662715 7.52554557 -126.58435893 -4.67556831 0 0 Z " fill="#9CB193" transform="translate(2539,1107)"/>
<path d="M0 0 C1.30768341 -0.00067474 2.61536682 -0.00134949 3.962677 -0.00204468 C25.73883349 0.01573883 47.24332288 0.72681112 68.875 3.25 C69.60948364 3.33485657 70.34396729 3.41971313 71.10070801 3.50714111 C125.99239687 9.9151886 180.5972952 22.18554873 232.375 41.625 C242.65586154 45.46871232 252.67011917 47.71956341 263.49560547 49.42602539 C282.48169085 52.49961984 300.66788125 58.70745878 317.875 67.25 C318.85750732 67.72904785 318.85750732 67.72904785 319.85986328 68.21777344 C337.15789876 76.72217321 352.38842959 88.52259797 365.875 102.25 C365.545 102.91 365.215 103.57 364.875 104.25 C364.33649414 103.9504541 363.79798828 103.6509082 363.24316406 103.34228516 C335.05119361 87.72493996 306.27535535 73.28819349 276.55810547 60.79882812 C274.13221283 59.77868608 271.70926422 58.75151024 269.28955078 57.71679688 C265.95080627 56.29174017 262.60294127 54.89127469 259.25 53.5 C258.29778564 53.09330078 257.34557129 52.68660156 256.36450195 52.26757812 C240.73669663 45.92912374 224.07079227 46.88682055 207.5 46.9375 C206.27368866 46.93932281 205.04737732 46.94114563 203.78390503 46.94302368 C184.62740544 46.99099658 165.86630255 47.62086533 146.875 50.25 C145.56708496 50.42692383 144.25916992 50.60384766 142.91162109 50.78613281 C51.61355003 63.31316023 -33.91805748 99.45283682 -136.125 175.25 C-136.71539063 175.74129395 -137.30578125 176.23258789 -137.9140625 176.73876953 C-145.12734517 182.75320786 -152.18468775 188.92174679 -159.125 195.25 C-160.36830078 196.35408203 -160.36830078 196.35408203 -161.63671875 197.48046875 C-168.79574027 203.90418421 -175.62897691 210.64599962 -182.4375 217.4375 C-182.91344604 217.91085785 -183.38939209 218.3842157 -183.87976074 218.87191772 C-188.97503907 223.94534534 -193.95730269 229.05872943 -198.63842773 234.51831055 C-200.70061888 236.92053123 -202.85186543 239.23716241 -205 241.5625 C-209.91995345 246.96480183 -214.57045002 252.53777177 -219.125 258.25 C-219.75293457 259.03648926 -219.75293457 259.03648926 -220.39355469 259.83886719 C-223.66997344 263.95078487 -226.90834578 268.0911929 -230.125 272.25 C-230.59276855 272.85408691 -231.06053711 273.45817383 -231.54248047 274.08056641 C-290.97545956 351.18225813 -331.42766537 443.63227511 -350.3125 714.64453125 C-347.35936041 736.94462251 -343.02044939 758.8932012 -337.57714844 780.71484375 C-337.40636276 781.40819824 -337.23557709 782.10155273 -337.05961609 782.81591797 C-336.59602703 784.69259095 -336.12362934 786.56708172 -335.65063477 788.44140625 C-335.125 791.25 -335.125 791.25 -336.125 793.25 C-350.36420682 783.21637601 -364.05034148 772.76815155 -377.125 761.25 C-378.5171875 760.02796875 -378.5171875 760.02796875 -379.9375 758.78125 C-386.76820158 752.6491429 -393.29505748 746.21181066 -399.8125 739.75 C-400.69172119 738.88383057 -401.57094238 738.01766113 -402.47680664 737.12524414 C-408.46349789 731.14643086 -413.84793019 724.85699062 -419.125 718.25 C-420.19715021 716.96743356 -421.27345349 715.68831747 -422.35546875 714.4140625 C-462.74727431 666.33400587 -485.28425906 606.86139743 -494.125 545.25 C-494.25922363 544.33734375 -494.39344727 543.4246875 -494.53173828 542.484375 C-498.82265925 511.77803757 -497.27778813 478.87313836 -493.125 448.25 C-492.97466309 447.09161621 -492.82432617 445.93323242 -492.66943359 444.73974609 C-485.19571294 388.96235221 -466.73482762 333.2031494 -443.125 282.25 C-442.64562988 281.21294922 -442.16625977 280.17589844 -441.67236328 279.10742188 C-422.41761321 237.69034656 -398.5210047 199.23325902 -369.125 164.25 C-368.69960937 163.73969238 -368.27421875 163.22938477 -367.8359375 162.70361328 C-354.83797496 147.13855314 -340.88182298 132.63898154 -325.94775391 118.92431641 C-324.39981846 117.50243839 -322.86101287 116.07063125 -321.32421875 114.63671875 C-314.58271269 108.42482364 -307.39686728 102.8199409 -300.125 97.25 C-299.48224121 96.75564453 -298.83948242 96.26128906 -298.17724609 95.75195312 C-224.80296121 39.45788316 -135.85297049 8.74838667 -44.125 1.25 C-43.01592285 1.1557373 -41.9068457 1.06147461 -40.76416016 0.96435547 C-27.19564982 -0.04252058 -13.59930161 0.00631893 0 0 Z " fill="#A1B698" transform="translate(1621.125,1103.75)"/>
<path d="M0 0 C6.14230739 3.27589728 11.55025247 7.26192527 17.0625 11.5 C18.45359985 12.56577271 18.45359985 12.56577271 19.87280273 13.65307617 C27.4791211 19.52027968 34.83321092 25.60637227 42 32 C42.9178125 32.80695313 43.835625 33.61390625 44.78125 34.4453125 C51.62723976 40.57978085 58.16093003 47.0291398 64.6875 53.5 C65.56672119 54.36616943 66.44594238 55.23233887 67.35180664 56.12475586 C73.33849789 62.10356914 78.72293019 68.39300938 84 75 C85.07215021 76.28256644 86.14845349 77.56168253 87.23046875 78.8359375 C144.56865549 147.08798089 167.45277647 238.01122471 160.1784668 325.8215332 C159.58125199 332.23232938 158.83513756 338.61613754 158 345 C157.84966309 346.17691406 157.69932617 347.35382812 157.54443359 348.56640625 C150.11368409 404.30860194 131.59080971 460.08789379 108 511 C107.52062988 512.03705078 107.04125977 513.07410156 106.54736328 514.14257812 C84.28950863 562.01934824 54.9377565 611.45627454 16.5703125 648.43359375 C14.80470561 650.19480859 13.18775403 652.04622906 11.5625 653.9375 C6.22014793 660.11459458 0.43660918 665.72048707 -5.7578125 671.03515625 C-7.92163541 672.93132859 -10.02526445 674.88302131 -12.12475586 676.84985352 C-18.49561741 682.79564538 -25.16229918 688.23139888 -32.08007812 693.52587891 C-34.10869562 695.08345679 -36.12503255 696.65607957 -38.140625 698.23046875 C-61.69563235 716.55492247 -87.31765202 731.67680257 -114 745 C-114.72493652 745.36641602 -115.44987305 745.73283203 -116.19677734 746.11035156 C-197.10018534 786.78543832 -292.12669949 798.38179303 -404 790 C-404.81502991 789.90289734 -405.63005981 789.80579468 -406.4697876 789.70574951 C-459.33188268 783.32066783 -511.68896123 771.97940356 -561.71484375 753.546875 C-573.94349976 749.06877562 -585.65104014 745.93239926 -598.51782227 743.875 C-617.51959913 740.74134114 -635.77697399 734.58730482 -653 726 C-654.17691406 725.41347656 -655.35382812 724.82695312 -656.56640625 724.22265625 C-673.07667657 715.6263998 -687.96682428 704.28461962 -701 691 C-700.67 690.34 -700.34 689.68 -700 689 C-699.39043457 689.33507568 -698.78086914 689.67015137 -698.15283203 690.01538086 C-669.34833946 705.80015771 -640.12963713 720.48728202 -609.84356689 733.22210693 C-608.02844713 733.98799673 -606.21706708 734.76273003 -604.40576172 735.53759766 C-601.06999207 736.96131596 -597.72506739 738.36031015 -594.375 739.75 C-593.42294678 740.15661865 -592.47089355 740.5632373 -591.48999023 740.98217773 C-575.86208862 747.32093041 -559.19596606 746.36317998 -542.625 746.3125 C-541.39868866 746.31067719 -540.17237732 746.30885437 -538.90890503 746.30697632 C-519.75011192 746.25899768 -500.9942296 745.61927692 -482 743 C-480.07003174 742.74259033 -480.07003174 742.74259033 -478.10107422 742.47998047 C-397.9543079 731.65627188 -320.87642816 702.3344297 -199 618 C-198.42024414 617.51934082 -197.84048828 617.03868164 -197.24316406 616.54345703 C-190.30137247 610.78117329 -183.55532426 604.84746279 -176.94921875 598.703125 C-174.79952347 596.70880264 -172.59478094 594.79343368 -170.3671875 592.88671875 C-165.34494805 588.50823422 -160.65315436 583.80329711 -155.9543457 579.0847168 C-154.4400742 577.56508332 -152.9205257 576.05087483 -151.40039062 574.53710938 C-146.60038433 569.74038526 -141.90650375 564.89506883 -137.49145508 559.73657227 C-135.27263732 557.15309694 -132.94614794 554.67942309 -130.625 552.1875 C-125.51086782 546.64368251 -120.69412565 540.90551292 -116 535 C-115.58282715 534.47712402 -115.1656543 533.95424805 -114.73583984 533.41552734 C-111.93407527 529.89956713 -109.16054277 526.36283252 -106.40625 522.80957031 C-105.50672631 521.65205824 -104.60343076 520.49746129 -103.6953125 519.34667969 C-87.1221725 498.31636947 -72.17658182 475.29164536 -59 452 C-58.52481934 451.16098145 -58.04963867 450.32196289 -57.56005859 449.45751953 C-53.94053771 443.02374087 -50.43804347 436.5323917 -47 430 C-46.22487061 428.52781006 -46.22487061 428.52781006 -45.43408203 427.02587891 C-6.30968941 352.11272209 16.98431166 266.84117148 2.54003906 12.53515625 C2.28657211 11.49512451 2.28657211 11.49512451 2.02798462 10.43408203 C1.56858249 8.55804901 1.10404685 6.68327521 0.63916016 4.80859375 C0 2 0 2 0 0 Z " fill="#96AC8C" transform="translate(2810,2003)"/>
<path d="M0 0 C1.10903888 3.32711664 0.89822456 4.18003072 -0.00390625 7.453125 C-0.2469751 8.36553955 -0.49004395 9.2779541 -0.74047852 10.21801758 C-1.01174561 11.21857178 -1.2830127 12.21912598 -1.5625 13.25 C-10.22552484 46.67905416 -15.88356318 81.51549577 -18 116 C-18.06195053 116.96805069 -18.06195053 116.96805069 -18.12515259 117.95565796 C-18.94123452 130.91121081 -19.20243884 143.83286532 -19.1875 156.8125 C-19.18659363 158.28342102 -19.18659363 158.28342102 -19.18566895 159.78405762 C-19.04264113 245.85540831 0.80548637 330.76247077 70 469 C70.39106934 469.62874023 70.78213867 470.25748047 71.18505859 470.90527344 C85.5997023 493.99157368 101.57765233 516.0976515 119 537 C119.48065918 537.57975586 119.96131836 538.15951172 120.45654297 538.75683594 C126.58269335 546.13697568 132.91961893 553.27903247 139.44848633 560.30493164 C140.62083596 561.58575359 141.77986325 562.87878715 142.93237305 564.17749023 C148.44775998 570.38685398 154.18327046 576.33870385 160.06616211 582.1965332 C161.56806925 583.69304925 163.06451062 585.194883 164.56054688 586.69726562 C169.87117876 592.01156262 175.28701371 597.12131745 181 602 C182.60768373 603.45445517 184.21239715 604.91220895 185.8125 606.375 C191.06180977 611.10576093 196.49623945 615.56997052 202 620 C203.13313697 620.92538408 204.26593449 621.85118393 205.3984375 622.77734375 C271.1028633 676.26183296 349.26836071 714.8615536 501 745 C502.53575684 745.15795044 502.53575684 745.15795044 504.10253906 745.3190918 C515.63490726 746.32794982 527.21861355 746.18606846 538.78564453 746.18530273 C542.49132688 746.18749487 546.19671359 746.20572062 549.90234375 746.22460938 C567.65047862 746.27215269 582.32149599 745.34768822 598.8125 738.3125 C600.2085532 737.72933749 601.60488194 737.14683421 603.00146484 736.56494141 C607.34860279 734.74265257 611.67688473 732.87847227 616 731 C616.67967834 730.70506653 617.35935669 730.41013306 618.05963135 730.10626221 C635.34312462 722.58704742 652.32159962 714.47334574 669.1875 706.0625 C669.98101868 705.6676239 670.77453735 705.2727478 671.59210205 704.86590576 C681.58424593 699.88193274 691.37109508 694.6573073 701 689 C701 692.79616263 700.19518149 693.23734179 697.5625 695.875 C686.43206301 706.60355308 673.61326775 715.70645842 660 723 C658.9776123 723.54817383 658.9776123 723.54817383 657.93457031 724.10742188 C635.50808053 735.88719849 611.36867648 742.28899704 586.49975586 746.41479492 C579.58244335 747.65044865 573.25035697 749.96689514 566.6875 752.4375 C514.83568995 771.3879032 459.90210529 784.29704381 405 790 C403.64577223 790.14902258 402.29160651 790.29861003 400.9375 790.44873047 C358.37886841 795.08773016 314.51218737 795.12421222 272 790 C270.79682129 789.86078125 269.59364258 789.7215625 268.35400391 789.578125 C189.73269328 780.24339745 113.54407035 752.25496759 49.25 705.8125 C48.49195068 705.2649707 47.73390137 704.71744141 46.95288086 704.15332031 C39.67218203 698.84367287 32.68862477 693.20332608 25.75732422 687.44873047 C24.15500094 686.1277821 22.53352334 684.83015579 20.91015625 683.53515625 C15.36057317 679.10638659 10.30080898 674.42227365 5.33984375 669.34375 C3.2515378 667.25195773 1.11741003 665.29831464 -1.125 663.375 C-7.25135372 658.11151301 -12.77971405 652.36757818 -18.03515625 646.2421875 C-19.9312526 644.07845131 -21.88286798 641.97490668 -23.84960938 639.87548828 C-29.78555403 633.51525191 -35.19203564 626.85202872 -40.48730469 619.95410156 C-42.10143665 617.86896401 -43.73975186 615.80459507 -45.3828125 613.7421875 C-53.50266323 603.51149013 -60.98270636 593.01497006 -68 582 C-68.53512207 581.16033691 -69.07024414 580.32067383 -69.62158203 579.45556641 C-77.18151675 567.5331921 -84.32292456 555.43694226 -91 543 C-91.45697266 542.15840332 -91.91394531 541.31680664 -92.38476562 540.44970703 C-106.06455687 515.19577576 -117.3692418 489.04384575 -127 462 C-127.23934265 461.33029175 -127.4786853 460.6605835 -127.72528076 459.97058105 C-143.06284288 416.94839631 -154.69894476 372.56356407 -159 327 C-159.0942627 326.05745361 -159.18852539 325.11490723 -159.28564453 324.14379883 C-163.4833753 277.35674774 -158.50998007 229.6541224 -144 185 C-143.72043457 184.12843262 -143.44086914 183.25686523 -143.15283203 182.35888672 C-138.98341936 169.49041924 -133.79618528 157.21422325 -128 145 C-127.67950684 144.31518555 -127.35901367 143.63037109 -127.02880859 142.92480469 C-115.63360769 118.68815845 -100.85997699 96.5853606 -83.71386719 76.07861328 C-82.48796936 74.59181925 -81.28246087 73.08811971 -80.09082031 71.57373047 C-74.17640485 64.12549357 -67.70512282 57.39761863 -60.96240234 50.70166016 C-59.12752731 48.87751253 -57.30360668 47.04290127 -55.48046875 45.20703125 C-48.62421304 38.34307403 -41.61259361 32.0239756 -34 26 C-32.89788496 25.06555872 -31.80156868 24.12417064 -30.71484375 23.171875 C-21.03040165 14.72693252 -10.69027723 7.12685149 0 0 Z " fill="#9DB294" transform="translate(1285,2003)"/>
<path d="M0 0 C0.74969055 0.00054382 1.4993811 0.00108765 2.27178955 0.00164795 C24.2315436 0.07409178 45.28336911 3.3940012 66.125 10.375 C66.84187988 10.61476563 67.55875977 10.85453125 68.29736328 11.1015625 C90.84145576 18.80135106 111.76815209 30.16186644 130.125 45.375 C130.71297363 45.86145996 131.30094727 46.34791992 131.90673828 46.84912109 C142.77214254 55.89357206 152.32958286 65.26345634 161.125 76.375 C162.31609375 77.84066406 162.31609375 77.84066406 163.53125 79.3359375 C184.557667 105.75203734 198.03011113 137.2440248 204.125 170.375 C204.44404297 171.99341797 204.44404297 171.99341797 204.76953125 173.64453125 C213.51753052 224.68501619 200.94874705 281.06296373 171.0625 323.375 C152.86635295 348.5656862 131.13934276 370.01181701 103.95751953 385.34130859 C102.75119125 386.02177674 101.54888861 386.70943956 100.35107422 387.40478516 C54.15178733 414.18679483 -2.81598905 419.0243719 -53.98486328 405.90625 C-89.53586188 396.28013346 -119.27501381 377.44324541 -145.875 352.375 C-146.97328125 351.34052734 -146.97328125 351.34052734 -148.09375 350.28515625 C-185.35135207 314.13641138 -205.16379552 261.34419107 -206.16040039 210.05200195 C-206.63057805 152.76233725 -185.14492127 100.59961159 -145.31811523 59.58154297 C-117.83499923 31.85332053 -82.45166075 13.42558116 -44.625 4.5625 C-43.38665405 4.2699231 -43.38665405 4.2699231 -42.12329102 3.97143555 C-28.23135136 0.91296927 -14.18631632 -0.03936557 0 0 Z " fill="#97AF8D" transform="translate(3216.875,1743.625)"/>
<path d="M0 0 C1.49466797 1.05767578 1.49466797 1.05767578 3.01953125 2.13671875 C48.3990993 35.26439818 79.09269542 83.3070781 88 139 C96.34277305 192.61591921 83.09950563 247.91903661 51.58935547 291.97216797 C45.03338477 300.88036971 37.64292499 309.0206293 30 317 C28.93652344 318.12535156 28.93652344 318.12535156 27.8515625 319.2734375 C1.44404257 346.5432438 -34.67526649 364.24275514 -71.25 372.8125 C-72.07556396 373.00755127 -72.90112793 373.20260254 -73.75170898 373.40356445 C-87.64364864 376.46203073 -101.68868368 377.41436557 -115.875 377.375 C-116.62469055 377.37445618 -117.3743811 377.37391235 -118.14678955 377.37335205 C-140.11148657 377.30089191 -161.15141871 373.97017948 -182 367 C-183.05936768 366.64832764 -183.05936768 366.64832764 -184.14013672 366.28955078 C-230.44359003 350.61165512 -270.93632163 317.66431056 -295 275 C-295.41604492 274.27280762 -295.83208984 273.54561523 -296.26074219 272.79638672 C-307.99029569 252.09444257 -315.57483978 230.3497816 -320 207 C-320.23332031 205.8346875 -320.46664062 204.669375 -320.70703125 203.46875 C-329.46191442 152.57705501 -316.71746649 96.16352817 -286.9375 54 C-268.71090627 28.757191 -247.05118427 7.38396017 -219.83251953 -7.96630859 C-218.62619125 -8.64677674 -217.42388861 -9.33443956 -216.22607422 -10.02978516 C-150.95111277 -47.87008025 -61.49284096 -43.69849774 0 0 Z " fill="#9DB493" transform="translate(995,1779)"/>
<path d="M0 0 C1.26317299 -0.01058945 1.26317299 -0.01058945 2.55186462 -0.02139282 C37.75703922 -0.24949667 37.75703922 -0.24949667 52.98828125 3.203125 C53.89030273 3.40180176 54.79232422 3.60047852 55.72167969 3.80517578 C98.56910167 13.49046334 141.19023351 36.39238794 168.98828125 71.203125 C170.2103125 72.68619141 170.2103125 72.68619141 171.45703125 74.19921875 C207.3505916 118.29354074 222.64632741 173.15004521 217.48046875 229.58203125 C216.88720612 234.83826543 216.02031206 240.01656073 214.98828125 245.203125 C214.82199219 246.05938477 214.65570312 246.91564453 214.484375 247.79785156 C206.70337637 286.63079844 187.70714211 321.22278196 160.41699219 349.71142578 C159.10162907 351.08477996 157.79827275 352.4696074 156.49609375 353.85546875 C149.88402252 360.71684759 142.59976233 366.5077726 134.98828125 372.203125 C134.15683594 372.82960938 133.32539063 373.45609375 132.46875 374.1015625 C106.84327024 392.6985887 76.26523889 405.35135529 44.98828125 410.203125 C43.90184326 410.37448975 43.90184326 410.37448975 42.79345703 410.54931641 C-10.87134255 418.56164547 -66.54247078 404.79577168 -110.19921875 372.765625 C-126.7403933 359.99699903 -141.63170314 346.10445289 -154.01171875 329.203125 C-154.79160156 328.14480469 -155.57148437 327.08648438 -156.375 325.99609375 C-162.25595355 317.75869594 -167.3095267 309.15766039 -172.01171875 300.203125 C-172.35589844 299.54892578 -172.70007812 298.89472656 -173.0546875 298.22070312 C-196.97254355 251.98867869 -201.14733287 194.47923692 -185.57421875 144.92578125 C-185.05896433 143.34972766 -184.53836255 141.77540943 -184.01171875 140.203125 C-183.77195312 139.48624512 -183.5321875 138.76936523 -183.28515625 138.03076172 C-174.26996973 111.6353358 -160.00319477 87.96923537 -141.08984375 67.46875 C-139.19353544 65.4013462 -137.38142269 63.28562407 -135.57421875 61.140625 C-103.41414443 24.53210503 -48.45935852 0.27033388 0 0 Z " fill="#91A986" transform="translate(2036.01171875,2893.796875)"/>
<path d="M0 0 C0.90347168 0.19867676 1.80694336 0.39735352 2.73779297 0.60205078 C38.63431979 8.71752298 70.45050346 25.01178641 97.62109375 49.84375 C99.77510509 51.79615436 101.97027726 53.68277359 104.1875 55.5625 C108.19634083 59.07720936 111.6125876 62.88950534 115 67 C115.64195312 67.76546143 115.64195312 67.76546143 116.296875 68.54638672 C153.13882043 112.58718756 168.69653785 166.33781242 164.76855469 223.35986328 C164.1932877 229.6440961 163.23109702 235.81301047 162 242 C161.83371094 242.85625977 161.66742187 243.71251953 161.49609375 244.59472656 C153.71509512 283.42767344 134.71886086 318.01965696 107.42871094 346.50830078 C106.11334782 347.88165496 104.8099915 349.2664824 103.5078125 350.65234375 C74.54727192 380.70483914 32.9780253 400.64337337 -8 407 C-9.08643799 407.17136475 -9.08643799 407.17136475 -10.19482422 407.34619141 C-63.8596238 415.35852047 -119.53075203 401.59264668 -163.1875 369.5625 C-179.72867455 356.79387403 -194.61998439 342.90132789 -207 326 C-207.77988281 324.94167969 -208.55976562 323.88335938 -209.36328125 322.79296875 C-215.2442348 314.55557094 -220.29780795 305.95453539 -225 297 C-225.34417969 296.34580078 -225.68835937 295.69160156 -226.04296875 295.01757812 C-249.9608248 248.78555369 -254.13561412 191.27611192 -238.5625 141.72265625 C-238.04724558 140.14660266 -237.5266438 138.57228443 -237 137 C-236.76023437 136.28312012 -236.52046875 135.56624023 -236.2734375 134.82763672 C-227.25825098 108.4322108 -212.99147602 84.76611037 -194.078125 64.265625 C-192.18181669 62.1982212 -190.36970394 60.08249907 -188.5625 57.9375 C-161.8066621 27.38563934 -120.95185929 8.43570315 -82 0 C-80.80963135 -0.26683594 -80.80963135 -0.26683594 -79.59521484 -0.5390625 C-54.83870852 -5.83165176 -24.67266527 -5.55546762 0 0 Z " fill="#A2B899" transform="translate(2089,604)"/>
</svg>
